<?xml version="1.0" encoding="UTF-8" standalone="no"?>
<svg
   width="64"
   height="64"
   version="1.1"
   viewBox="0 0 16.933 16.933"
   id="svg7"
   sodipodi:docname="abcd.svg"
   inkscape:version="1.4.2 (ebf0e940d0, 2025-05-08)"
   xmlns:inkscape="http://www.inkscape.org/namespaces/inkscape"
   xmlns:sodipodi="http://sodipodi.sourceforge.net/DTD/sodipodi-0.dtd"
   xmlns="http://www.w3.org/2000/svg"
   xmlns:svg="http://www.w3.org/2000/svg"
   xmlns:rdf="http://www.w3.org/1999/02/22-rdf-syntax-ns#"
   xmlns:cc="http://creativecommons.org/ns#"
   xmlns:dc="http://purl.org/dc/elements/1.1/">
  <sodipodi:namedview
     id="namedview7"
     pagecolor="#9c4444"
     bordercolor="#000000"
     borderopacity="0.25"
     inkscape:showpageshadow="2"
     inkscape:pageopacity="0.0"
     inkscape:pagecheckerboard="0"
     inkscape:deskcolor="#d1d1d1"
     inkscape:zoom="4.3531261"
     inkscape:cx="29.633876"
     inkscape:cy="27.566396"
     inkscape:window-width="1226"
     inkscape:window-height="669"
     inkscape:window-x="207"
     inkscape:window-y="189"
     inkscape:window-maximized="0"
     inkscape:current-layer="svg7"
     showgrid="false" />
  <defs
     id="defs2">
    <rect
       x="67.489848"
       y="35.60533"
       width="15.337563"
       height="22.51269"
       id="rect3808" />
    <filter
       style="color-interpolation-filters:sRGB;"
       inkscape:label="Blur"
       id="filter15"
       x="-0.098732889"
       y="-0.098732882"
       width="1.1974658"
       height="1.1974658">
      <feGaussianBlur
         stdDeviation="0.4 0.4"
         result="blur"
         id="feGaussianBlur15" />
    </filter>
    <clipPath
       id="clip0_1957_1318">
      <rect
         width="96"
         height="96"
         fill="#ffffff"
         id="rect1410"
         x="0"
         y="0" />
    </clipPath>
  </defs>
  <metadata
     id="metadata2">
    <rdf:RDF>
      <cc:Work
         rdf:about="">
        <dc:format>image/svg+xml</dc:format>
        <dc:type
           rdf:resource="http://purl.org/dc/dcmitype/StillImage" />
      </cc:Work>
    </rdf:RDF>
  </metadata>
  <g
     fill="#474747"
     id="g9"
     transform="matrix(0.46959567,0,0,0.46959567,4.7471229,3.7470598)"
     style="fill:#999999;fill-opacity:1;stroke:none;stroke-width:0.58349;stroke-dasharray:none;stroke-opacity:0.3" />
  <text
     xml:space="preserve"
     transform="scale(0.26457812)"
     id="text3806"
     style="font-size:6.66667px;white-space:pre;shape-inside:url(#rect3808);display:inline;fill:#999999;stroke-width:2" />
  <rect
     style="fill:none;fill-opacity:0.8;stroke:#000000;stroke-width:0.619113;stroke-dasharray:none;stroke-opacity:1;filter:url(#filter15)"
     id="rect246-4-3"
     width="12.858497"
     height="12.858498"
     x="2.0372517"
     y="2.037251"
     rx="1.9049625"
     ry="1.9049625"
     transform="matrix(1.1025,0,0,1.1025,-0.86781625,-0.86781624)" />
  <rect
     style="fill:#cccccc;fill-opacity:0.99999982;stroke:#333333;stroke-width:0.682572;stroke-dasharray:none;stroke-opacity:1"
     id="rect246-4"
     width="14.176493"
     height="14.176494"
     x="1.3782538"
     y="1.3782533"
     rx="2.1002214"
     ry="2.1002214" />
  <ellipse
     style="fill:#345da1;fill-opacity:1;stroke:none;stroke-width:0.232829;stroke-dasharray:none;stroke-opacity:1"
     id="path20"
     cx="8.5090437"
     cy="8.2963171"
     rx="2.1880395"
     ry="3.3124487" />
  <path
     style="fill:#333333;fill-opacity:1;stroke:none;stroke-width:0.14439;stroke-dasharray:none;stroke-dashoffset:2.2;stroke-opacity:0.6"
     d="M 8.3136718,13.214635 C 7.8766811,13.051526 7.2507898,12.661052 6.8316874,12.290073 5.4153012,11.036318 4.6183756,8.6497561 4.6852826,5.8622059 4.7034623,5.1045747 4.7317556,4.9539677 4.8697445,4.8801181 5.0504342,4.7834163 8.3658048,3.6869979 8.4742598,3.6880778 c 0.06776,7.029e-4 0.8769322,0.2575182 1.8608832,0.5906723 2.050487,0.6942707 1.86629,0.580727 1.903508,1.1733586 0.03534,0.5629177 -0.0051,1.7564132 -0.07792,2.2970877 -0.156603,1.1633374 -0.404616,2.0223787 -0.833077,2.8855316 -0.551403,1.11082 -1.322517,1.901254 -2.344735,2.403481 -0.4504103,0.221294 -0.5082177,0.236533 -0.6692549,0.176426 z M 8.8357245,9.4827165 C 9.4141132,8.6895785 9.9119272,7.9890867 9.9419791,7.9260685 10.022562,7.7570836 10.013458,7.5696627 9.9201356,7.4763387 9.8051958,7.3613998 9.6396143,7.3304467 9.138642,7.330249 L 8.6836732,7.3300697 8.9251181,6.6771973 C 9.2122086,5.9008997 9.2332107,5.789957 9.1153838,5.6721303 c -0.081127,-0.081126 -0.09325,-0.083052 -0.5229536,-0.083052 -0.4932917,0 -0.6063092,0.031666 -0.7403957,0.2074653 -0.1040246,0.1363817 -0.8537901,2.3384353 -0.8537901,2.5075696 0,0.097486 0.021957,0.149051 0.094241,0.2213372 l 0.094241,0.094241 H 7.6039391 8.0211498 L 7.8312231,9.7386892 C 7.7267643,10.354138 7.6489036,10.877508 7.6581993,10.901735 c 0.0093,0.02423 0.04143,0.03932 0.071405,0.03354 0.029979,-0.0058 0.527731,-0.659429 1.1061197,-1.4525667 z"
     id="path83" />
  <path
     style="fill:#345da1;fill-opacity:1;stroke-width:0.00888214;stroke-opacity:0.5"
     d="M 19.819298,9.2338062 C 19.485295,9.0673654 19.338603,8.6282284 19.506102,8.2962194 c 0.262406,-0.5201316 0.945861,-0.5156716 1.21264,0.0079 0.03213,0.06306 0.05364,0.17316 0.05495,0.281268 0.0037,0.300769 -0.126361,0.525671 -0.375679,0.6499098 -0.200086,0.09971 -0.37653,0.09925 -0.578716,-0.0015 z"
     id="path2-2" />
  <g
     id="g7227"
     transform="matrix(0.22436691,0,0,0.22436691,1.7346399,1.7963712)"
     style="fill:#333333;fill-opacity:1;stroke:none;stroke-width:0.675722;stroke-dasharray:none;stroke-opacity:0.6" />
  <g
     id="g1178"
     transform="matrix(0.90982636,0,0,0.90982636,0.74896913,0.60858537)"
     style="fill:#333333;fill-opacity:1;stroke:none;stroke-width:0.166636;stroke-dasharray:none;stroke-opacity:0.6" />
  <g
     fill-rule="nonzero"
     id="g8-6"
     transform="matrix(0.26214424,0,0,0.26214424,2.1996803,2.2464725)"
     style="fill:#333333;fill-opacity:1;stroke:none;stroke-width:0.578345;stroke-dasharray:none;stroke-opacity:0.6" />
  <g
     id="g18897"
     transform="matrix(0.22696471,0,0,0.22696471,1.2429561,0.2188287)"
     style="fill:#333333;fill-opacity:1;stroke:none;stroke-width:0.636179;stroke-dasharray:none;stroke-opacity:0.6" />
  <g
     id="g19"
     transform="matrix(0.353756,0,0,0.353756,13.753295,-2.8888834)"
     style="fill:#333333;fill-opacity:1" />
  <g
     id="g2"
     transform="matrix(0.16114325,0,0,0.16114325,3.3223971,3.2799791)"
     style="fill:#333333;fill-opacity:1;stroke:none;stroke-width:0.940838;stroke-dasharray:none;stroke-opacity:0.6" />
  <g
     id="g7"
     transform="matrix(0.01825826,0,0,0.01825826,3.7923903,3.7923935)"
     style="fill:#333333;fill-opacity:1" />
  <g
     id="g5"
     transform="matrix(0.23831295,0,0,0.23831295,0.84320935,0.84048597)"
     style="fill:#333333;fill-opacity:1;stroke:none;stroke-width:0.623519;stroke-dasharray:none;stroke-opacity:0.6" />
  <g
     id="g6"
     transform="translate(-0.52915565)" />
  <g
     id="g8"
     transform="matrix(0.5086385,0,0,0.5086385,2.0089833,2.2067877)"
     style="fill:#333333;fill-opacity:1" />
  <g
     id="g1759"
     transform="matrix(0.19991092,0,0,0.19991093,2.0448278,2.0488816)"
     style="fill:#333333;fill-opacity:1;stroke:none;stroke-width:0.743294;stroke-dasharray:none;stroke-opacity:0.6" />
</svg>
