<?xml version="1.0" encoding="UTF-8" standalone="no"?>
<svg
   width="64"
   height="64"
   version="1.1"
   viewBox="0 0 16.933 16.933"
   id="svg7"
   sodipodi:docname="abcd.svg"
   inkscape:version="1.4.2 (ebf0e940d0, 2025-05-08)"
   xmlns:inkscape="http://www.inkscape.org/namespaces/inkscape"
   xmlns:sodipodi="http://sodipodi.sourceforge.net/DTD/sodipodi-0.dtd"
   xmlns="http://www.w3.org/2000/svg"
   xmlns:svg="http://www.w3.org/2000/svg"
   xmlns:rdf="http://www.w3.org/1999/02/22-rdf-syntax-ns#"
   xmlns:cc="http://creativecommons.org/ns#"
   xmlns:dc="http://purl.org/dc/elements/1.1/">
  <sodipodi:namedview
     id="namedview7"
     pagecolor="#9c4444"
     bordercolor="#000000"
     borderopacity="0.25"
     inkscape:showpageshadow="2"
     inkscape:pageopacity="0.0"
     inkscape:pagecheckerboard="0"
     inkscape:deskcolor="#d1d1d1"
     inkscape:zoom="8.7062522"
     inkscape:cx="57.659712"
     inkscape:cy="29.748736"
     inkscape:window-width="1320"
     inkscape:window-height="669"
     inkscape:window-x="158"
     inkscape:window-y="123"
     inkscape:window-maximized="0"
     inkscape:current-layer="svg7"
     showgrid="false" />
  <defs
     id="defs2">
    <rect
       x="67.489848"
       y="35.60533"
       width="15.337563"
       height="22.51269"
       id="rect3808" />
    <filter
       style="color-interpolation-filters:sRGB;"
       inkscape:label="Blur"
       id="filter15"
       x="-0.098732889"
       y="-0.098732882"
       width="1.1974658"
       height="1.1974658">
      <feGaussianBlur
         stdDeviation="0.4 0.4"
         result="blur"
         id="feGaussianBlur15" />
    </filter>
  </defs>
  <metadata
     id="metadata2">
    <rdf:RDF>
      <cc:Work
         rdf:about="">
        <dc:format>image/svg+xml</dc:format>
        <dc:type
           rdf:resource="http://purl.org/dc/dcmitype/StillImage" />
      </cc:Work>
    </rdf:RDF>
  </metadata>
  <g
     fill="#474747"
     id="g9"
     transform="matrix(0.46959567,0,0,0.46959567,4.7471229,3.7470598)"
     style="fill:#999999;fill-opacity:1;stroke:none;stroke-width:0.58349;stroke-dasharray:none;stroke-opacity:0.3" />
  <text
     xml:space="preserve"
     transform="scale(0.26457812)"
     id="text3806"
     style="font-size:6.66667px;white-space:pre;shape-inside:url(#rect3808);display:inline;fill:#999999;stroke-width:2" />
  <rect
     style="fill:none;fill-opacity:0.8;stroke:#000000;stroke-width:0.619113;stroke-dasharray:none;stroke-opacity:1;filter:url(#filter15)"
     id="rect246-4-3"
     width="12.858497"
     height="12.858498"
     x="2.0372517"
     y="2.037251"
     rx="1.9049625"
     ry="1.9049625"
     transform="matrix(1.1025,0,0,1.1025,-0.86781625,-0.86781624)" />
  <rect
     style="fill:#cccccc;fill-opacity:0.99999982;stroke:#333333;stroke-width:0.682572;stroke-dasharray:none;stroke-opacity:1"
     id="rect246-4"
     width="14.176493"
     height="14.176494"
     x="1.3782538"
     y="1.3782533"
     rx="2.1002214"
     ry="2.1002214" />
  <path
     style="fill:#333333;stroke-width:0.184766"
     d="m 8.4664998,6.6188521 c -1.0204277,-10e-8 -1.8476478,0.82722 -1.8476477,1.8476477 2e-7,1.0204275 0.8272202,1.8476472 1.8476477,1.8476472 1.0204273,0 1.8476472,-0.8272199 1.8476472,-1.8476472 0,-1.0204275 -0.8272197,-1.8476475 -1.8476472,-1.8476477 z m 0,0.5542942 c 0.7142995,-1e-7 1.2933537,0.579054 1.2933537,1.2933535 10e-8,0.7142996 -0.5790541,1.2933538 -1.2933537,1.2933537 -0.7142995,0 -1.2933536,-0.5790542 -1.2933535,-1.2933537 0,-0.7142994 0.5790541,-1.2933535 1.2933535,-1.2933535 z m 0,-3.3257657 c -2.5510691,0 -4.6191192,2.0680501 -4.6191192,4.6191192 6e-7,2.5510692 2.0680505,4.6191182 4.6191192,4.6191182 2.5510682,-1e-6 4.6191172,-2.06805 4.6191182,-4.6191182 0,-2.5510687 -2.068049,-4.6191186 -4.6191182,-4.6191192 z m 0,0.9238237 c 2.0408552,1e-7 3.6952952,1.6544402 3.6952952,3.6952955 0,2.0408552 -1.65444,3.6952952 -3.6952952,3.6952952 -2.0408553,0 -3.6952954,-1.65444 -3.6952955,-3.6952952 -1e-7,-2.0408554 1.6544401,-3.6952956 3.6952955,-3.6952955 z"
     id="path4"
     sodipodi:nodetypes="ssssssssssssssssssss" />
  <g
     id="g2"
     transform="matrix(0.27379343,0,0,0.27379343,-0.29104894,-0.29652076)"
     style="fill:#333333;fill-opacity:1" />
  <g
     fill-rule="nonzero"
     id="g6-8"
     transform="matrix(0.34620992,0,0,0.34620992,0.1574624,-0.29555351)"
     style="fill:#333333;fill-opacity:1;stroke:none;stroke-width:0.425872;stroke-dasharray:none;stroke-opacity:0.6" />
  <g
     id="g43"
     transform="matrix(0.5966709,0,0,0.54213544,-18.980359,-3.4604799)"
     style="font-size:34.1545px;line-height:1.25;font-family:'padmaa-Bold.1.1';-inkscape-font-specification:'padmaa-Bold.1.1';fill:#333333;fill-opacity:1;stroke:none;stroke-width:0.569489;stroke-dasharray:none;stroke-opacity:0.3" />
  <g
     id="g6"
     transform="matrix(0.18044649,0,0,0.18044649,2.692212,2.692158)"
     style="fill:#333333;fill-opacity:1;stroke:none;stroke-width:0.846754;stroke-dasharray:none;stroke-opacity:0.6" />
  <g
     fill-rule="nonzero"
     id="g3"
     transform="matrix(0.26011262,0,0,0.26011262,2.2237975,2.223797)"
     style="fill:#333333;fill-opacity:1;stroke:none;stroke-width:0.566836;stroke-dasharray:none;stroke-opacity:0.6" />
  <g
     id="g1"
     style="fill:#333333;fill-opacity:1"
     transform="matrix(0.36041152,0,0,0.36041152,-3.3280983,-4.0885053)" />
  <g
     fill="#474747"
     id="g9-1"
     transform="matrix(0.57125823,0,0,0.57125823,3.8964343,3.896434)"
     style="fill:#333333;fill-opacity:1;stroke:none;stroke-width:0.253538;stroke-dasharray:none;stroke-opacity:0.6" />
  <g
     id="g1091"
     style="fill:#333333;fill-opacity:1;stroke:none;stroke-width:0.497577;stroke-dasharray:none;stroke-opacity:0.6"
     transform="matrix(0.31356398,0,0,0.31356398,-1.6783096,-1.9960197)" />
  <g
     id="g1759"
     transform="matrix(0.19991092,0,0,0.19991093,2.0448278,2.0488816)"
     style="fill:#333333;fill-opacity:1;stroke:none;stroke-width:0.743294;stroke-dasharray:none;stroke-opacity:0.6" />
  <path
     style="fill:#345da1;fill-opacity:1;stroke-width:0.00979256;stroke-opacity:0.5"
     d="m 19.849506,8.3875981 c -0.368238,-0.183503 -0.529966,-0.667651 -0.345298,-1.033691 0.289302,-0.573445 1.04281,-0.568529 1.336933,0.0087 0.03543,0.06952 0.05914,0.190908 0.06058,0.310097 0.0041,0.331598 -0.139313,0.579553 -0.414186,0.716527 -0.220594,0.109931 -0.415124,0.109423 -0.638033,-0.0017 z"
     id="path2" />
  <path
     style="opacity:1;fill:#345da1;fill-opacity:1;stroke:none;stroke-width:0.034458;stroke-opacity:1"
     d="m 30.552756,43.745583 c -3.536134,-0.558794 -6.562064,-2.456142 -8.390369,-5.261009 -1.933744,-2.966625 -2.45737,-6.411955 -1.484648,-9.768616 1.761141,-6.077328 8.166152,-9.744407 14.239696,-8.152695 4.322648,1.13285 7.592083,4.529435 8.63133,8.967009 0.329263,1.40595 0.280326,3.886708 -0.105407,5.343388 -1.375405,5.194066 -5.814274,8.744946 -11.110272,8.887681 -0.789663,0.02128 -1.590811,0.01419 -1.78033,-0.01576 z m 3.560659,-2.876451 c 1.609538,-0.351352 3.294724,-1.320469 4.486936,-2.580346 0.830435,-0.877568 1.159758,-1.360433 1.656769,-2.429214 1.88871,-4.061511 0.559564,-8.910056 -3.135814,-11.439033 -2.605103,-1.782833 -6.332156,-2.017584 -9.21033,-0.58012 -2.422426,1.209848 -4.15087,3.390103 -4.775004,6.023177 -0.346128,1.460235 -0.276333,3.607288 0.160554,4.938979 0.927061,2.825813 3.19156,5.054886 6.002625,5.908721 1.588362,0.48245 3.100158,0.532014 4.814264,0.157836 z"
     id="path27"
     transform="scale(0.26457812)" />
</svg>
