<?xml version="1.0" encoding="UTF-8" standalone="no"?>
<svg
   width="64"
   height="64"
   version="1.1"
   viewBox="0 0 16.933 16.933"
   id="svg7"
   sodipodi:docname="abcd.svg"
   inkscape:version="1.4.2 (ebf0e940d0, 2025-05-08)"
   xmlns:inkscape="http://www.inkscape.org/namespaces/inkscape"
   xmlns:sodipodi="http://sodipodi.sourceforge.net/DTD/sodipodi-0.dtd"
   xmlns="http://www.w3.org/2000/svg"
   xmlns:svg="http://www.w3.org/2000/svg"
   xmlns:rdf="http://www.w3.org/1999/02/22-rdf-syntax-ns#"
   xmlns:cc="http://creativecommons.org/ns#"
   xmlns:dc="http://purl.org/dc/elements/1.1/">
  <sodipodi:namedview
     id="namedview7"
     pagecolor="#9c4444"
     bordercolor="#000000"
     borderopacity="0.25"
     inkscape:showpageshadow="2"
     inkscape:pageopacity="0.0"
     inkscape:pagecheckerboard="0"
     inkscape:deskcolor="#d1d1d1"
     inkscape:zoom="6.15625"
     inkscape:cx="29.725888"
     inkscape:cy="27.451777"
     inkscape:window-width="1226"
     inkscape:window-height="669"
     inkscape:window-x="207"
     inkscape:window-y="189"
     inkscape:window-maximized="0"
     inkscape:current-layer="svg7"
     showgrid="false" />
  <defs
     id="defs2">
    <rect
       x="67.489848"
       y="35.60533"
       width="15.337563"
       height="22.51269"
       id="rect3808" />
    <filter
       style="color-interpolation-filters:sRGB;"
       inkscape:label="Blur"
       id="filter15"
       x="-0.098732889"
       y="-0.098732882"
       width="1.1974658"
       height="1.1974658">
      <feGaussianBlur
         stdDeviation="0.4 0.4"
         result="blur"
         id="feGaussianBlur15" />
    </filter>
    <clipPath
       id="clip0_1957_1318">
      <rect
         width="96"
         height="96"
         fill="#ffffff"
         id="rect1410"
         x="0"
         y="0" />
    </clipPath>
  </defs>
  <metadata
     id="metadata2">
    <rdf:RDF>
      <cc:Work
         rdf:about="">
        <dc:format>image/svg+xml</dc:format>
        <dc:type
           rdf:resource="http://purl.org/dc/dcmitype/StillImage" />
      </cc:Work>
    </rdf:RDF>
  </metadata>
  <g
     fill="#474747"
     id="g9"
     transform="matrix(0.46959567,0,0,0.46959567,4.7471229,3.7470598)"
     style="fill:#999999;fill-opacity:1;stroke:none;stroke-width:0.58349;stroke-dasharray:none;stroke-opacity:0.3" />
  <text
     xml:space="preserve"
     transform="scale(0.26457812)"
     id="text3806"
     style="font-size:6.66667px;white-space:pre;shape-inside:url(#rect3808);display:inline;fill:#999999;stroke-width:2" />
  <rect
     style="fill:none;fill-opacity:0.8;stroke:#000000;stroke-width:0.619113;stroke-dasharray:none;stroke-opacity:1;filter:url(#filter15)"
     id="rect246-4-3"
     width="12.858497"
     height="12.858498"
     x="2.0372517"
     y="2.037251"
     rx="1.9049625"
     ry="1.9049625"
     transform="matrix(1.1025,0,0,1.1025,-0.86781625,-0.86781624)" />
  <rect
     style="fill:#cccccc;fill-opacity:0.99999982;stroke:#333333;stroke-width:0.682572;stroke-dasharray:none;stroke-opacity:1"
     id="rect246-4"
     width="14.176493"
     height="14.176494"
     x="1.3782538"
     y="1.3782533"
     rx="2.1002214"
     ry="2.1002214" />
  <path
     style="fill:#345da1;fill-opacity:1;stroke-width:0.00888214;stroke-opacity:0.5"
     d="M 9.8485978,9.1048747 C 9.5145948,8.9384339 9.3679028,8.4992969 9.5354018,8.1672879 c 0.262406,-0.5201316 0.9458602,-0.5156716 1.2126392,0.0079 0.03213,0.06306 0.05364,0.17316 0.05495,0.281268 0.0037,0.300769 -0.126361,0.525671 -0.375679,0.6499098 -0.200086,0.09971 -0.37653,0.09925 -0.5787152,-0.0015 z"
     id="path2-2" />
  <path
     style="fill:#345da1;fill-opacity:1;stroke-width:0.00888214;stroke-opacity:0.5"
     d="M 6.4963795,9.1048747 C 6.1623765,8.9384339 6.0156845,8.4992969 6.1831835,8.1672879 c 0.262406,-0.5201316 0.9458602,-0.5156716 1.2126392,0.0079 0.03213,0.06306 0.05364,0.17316 0.05495,0.281268 0.0037,0.300769 -0.126361,0.525671 -0.375679,0.6499098 -0.200086,0.09971 -0.37653,0.09925 -0.5787152,-0.0015 z"
     id="path2-2-0" />
  <g
     id="g1"
     style="fill:#333333;fill-opacity:1"
     transform="matrix(0.88409474,0,0,0.88409474,0.98131224,1.2503115)">
    <path
       id="path2-92"
       class="ColorScheme-Text"
       d="m 6.5016585,7.0706567 c -0.602857,0 -1.0915785,0.4887214 -1.0915785,1.0915785 0,0.6028569 0.4887215,1.0915785 1.0915785,1.0915785 H 10.43134 c 0.602857,0 1.091579,-0.4887215 1.091579,-1.0915785 0,-0.6028571 -0.488722,-1.0915785 -1.091579,-1.0915785 z M 5.8467114,8.1622352 c 0,-0.3617055 0.2932416,-0.6549471 0.6549471,-0.6549471 0.3617055,0 0.6549471,0.2932416 0.6549471,0.6549471 0,0.3617054 -0.2932416,0.6549471 -0.6549471,0.6549471 -0.3617055,0 -0.6549471,-0.2932417 -0.6549471,-0.6549471 z m 3.9296824,0 c 0,-0.3617055 0.2932422,-0.6549471 0.6549462,-0.6549471 0.361706,0 0.654947,0.2932416 0.654947,0.6549471 0,0.3617054 -0.293241,0.6549471 -0.654947,0.6549471 -0.361704,0 -0.6549462,-0.2932417 -0.6549462,-0.6549471 z"
       clip-rule="evenodd"
       fill="currentColor"
       fill-rule="evenodd"
       stroke-width="0.436631"
       style="color:#232629;fill:#333333;fill-opacity:1" />
    <path
       style="fill:#333333;fill-opacity:1;stroke-width:0.23812;stroke-linecap:round"
       d="m 4.894695,4.8880809 c -0.819343,0 -1.4882518,0.668909 -1.4882518,1.4882519 v 3.5718046 c 0,0.8193416 0.6689088,1.4882506 1.4882518,1.4882506 h 7.143609 c 0.819343,0 1.488252,-0.668909 1.488252,-1.4882506 V 6.3763328 c 0,-0.8193429 -0.668909,-1.4882519 -1.488252,-1.4882519 z m 0,0.5953007 h 7.143609 c 0.499843,0 0.892951,0.3931076 0.892951,0.8929512 v 3.5718046 c 0,0.4998426 -0.393108,0.8929496 -0.892951,0.8929496 H 4.894695 c -0.4998434,0 -0.8929512,-0.393107 -0.8929512,-0.8929496 V 6.3763328 c 0,-0.4998436 0.3931078,-0.8929512 0.8929512,-0.8929512 z"
       id="rect3" />
  </g>
  <g
     id="g7227"
     transform="matrix(0.22436691,0,0,0.22436691,1.7346399,1.7963712)"
     style="fill:#333333;fill-opacity:1;stroke:none;stroke-width:0.675722;stroke-dasharray:none;stroke-opacity:0.6" />
  <g
     id="g1178"
     transform="matrix(0.90982636,0,0,0.90982636,0.74896913,0.60858537)"
     style="fill:#333333;fill-opacity:1;stroke:none;stroke-width:0.166636;stroke-dasharray:none;stroke-opacity:0.6" />
  <g
     fill-rule="nonzero"
     id="g8-6"
     transform="matrix(0.26214424,0,0,0.26214424,2.1996803,2.2464725)"
     style="fill:#333333;fill-opacity:1;stroke:none;stroke-width:0.578345;stroke-dasharray:none;stroke-opacity:0.6" />
  <g
     id="g18897"
     transform="matrix(0.22696471,0,0,0.22696471,1.2429561,0.2188287)"
     style="fill:#333333;fill-opacity:1;stroke:none;stroke-width:0.636179;stroke-dasharray:none;stroke-opacity:0.6" />
  <g
     id="g19"
     transform="matrix(0.353756,0,0,0.353756,13.753295,-2.8888834)"
     style="fill:#333333;fill-opacity:1" />
  <g
     id="g2"
     transform="matrix(0.16114325,0,0,0.16114325,3.3223971,3.2799791)"
     style="fill:#333333;fill-opacity:1;stroke:none;stroke-width:0.940838;stroke-dasharray:none;stroke-opacity:0.6" />
  <g
     id="g7"
     transform="matrix(0.01825826,0,0,0.01825826,3.7923903,3.7923935)"
     style="fill:#333333;fill-opacity:1" />
  <g
     id="g5"
     transform="matrix(0.23831295,0,0,0.23831295,0.84320935,0.84048597)"
     style="fill:#333333;fill-opacity:1;stroke:none;stroke-width:0.623519;stroke-dasharray:none;stroke-opacity:0.6" />
  <g
     id="g6"
     transform="translate(-0.52915565)" />
  <g
     id="g8"
     transform="matrix(0.5086385,0,0,0.5086385,2.0089833,2.2067877)"
     style="fill:#333333;fill-opacity:1" />
  <g
     id="g1759"
     transform="matrix(0.19991092,0,0,0.19991093,2.0448278,2.0488816)"
     style="fill:#333333;fill-opacity:1;stroke:none;stroke-width:0.743294;stroke-dasharray:none;stroke-opacity:0.6" />
</svg>
