<?xml version="1.0" encoding="UTF-8" standalone="no"?>
<svg
   width="64"
   height="64"
   version="1.1"
   viewBox="0 0 16.933 16.933"
   id="svg7"
   sodipodi:docname="accessories-text-editor.svg"
   inkscape:version="1.4.2 (ebf0e940d0, 2025-05-08)"
   xmlns:inkscape="http://www.inkscape.org/namespaces/inkscape"
   xmlns:sodipodi="http://sodipodi.sourceforge.net/DTD/sodipodi-0.dtd"
   xmlns="http://www.w3.org/2000/svg"
   xmlns:svg="http://www.w3.org/2000/svg"
   xmlns:rdf="http://www.w3.org/1999/02/22-rdf-syntax-ns#"
   xmlns:cc="http://creativecommons.org/ns#"
   xmlns:dc="http://purl.org/dc/elements/1.1/">
  <sodipodi:namedview
     id="namedview7"
     pagecolor="#9c4444"
     bordercolor="#000000"
     borderopacity="0.25"
     inkscape:showpageshadow="2"
     inkscape:pageopacity="0.0"
     inkscape:pagecheckerboard="0"
     inkscape:deskcolor="#d1d1d1"
     inkscape:zoom="4.3531261"
     inkscape:cx="28.485276"
     inkscape:cy="27.796116"
     inkscape:window-width="1226"
     inkscape:window-height="669"
     inkscape:window-x="377"
     inkscape:window-y="158"
     inkscape:window-maximized="0"
     inkscape:current-layer="g12"
     showgrid="false" />
  <defs
     id="defs2">
    <rect
       x="67.489848"
       y="35.60533"
       width="15.337563"
       height="22.51269"
       id="rect3808" />
    <filter
       style="color-interpolation-filters:sRGB;"
       inkscape:label="Blur"
       id="filter15"
       x="-0.098732889"
       y="-0.098732882"
       width="1.1974658"
       height="1.1974658">
      <feGaussianBlur
         stdDeviation="0.4 0.4"
         result="blur"
         id="feGaussianBlur15" />
    </filter>
  </defs>
  <metadata
     id="metadata2">
    <rdf:RDF>
      <cc:Work
         rdf:about="">
        <dc:format>image/svg+xml</dc:format>
        <dc:type
           rdf:resource="http://purl.org/dc/dcmitype/StillImage" />
      </cc:Work>
    </rdf:RDF>
  </metadata>
  <g
     fill="#474747"
     id="g9"
     transform="matrix(0.46959567,0,0,0.46959567,4.7471229,3.7470598)"
     style="fill:#999999;fill-opacity:1;stroke:none;stroke-width:0.58349;stroke-dasharray:none;stroke-opacity:0.3" />
  <text
     xml:space="preserve"
     transform="scale(0.26457812)"
     id="text3806"
     style="font-size:6.66667px;white-space:pre;shape-inside:url(#rect3808);display:inline;fill:#999999;stroke-width:2" />
  <rect
     style="fill:none;fill-opacity:0.8;stroke:#000000;stroke-width:0.619113;stroke-dasharray:none;stroke-opacity:1;filter:url(#filter15)"
     id="rect246-4-3"
     width="12.858497"
     height="12.858498"
     x="2.0372517"
     y="2.037251"
     rx="1.9049625"
     ry="1.9049625"
     transform="matrix(1.1025,0,0,1.1025,-0.86781625,-0.86781624)" />
  <rect
     style="fill:#cccccc;fill-opacity:0.99999982;stroke:#333333;stroke-width:0.682572;stroke-dasharray:none;stroke-opacity:1"
     id="rect246-4"
     width="14.176493"
     height="14.176494"
     x="1.3782538"
     y="1.3782533"
     rx="2.1002214"
     ry="2.1002214" />
  <g
     id="g12"
     transform="matrix(0.15162093,0.15162093,-0.15162093,0.15162093,8.4664999,-1.2372398)"
     style="fill:#333333;fill-opacity:1">
    <path
       style="fill:#34a1a1;fill-opacity:1"
       d="M 37.6,40 44,24 h 4.8 l 6.4,16 H 50.4 L 46.399352,30.4 42.4,40 h -4.799678 z"
       id="path3" />
    <path
       style="fill:#34a1a1;fill-opacity:1"
       d="M 24.8,40 31.2,24 H 36 l 6.4,16 H 37.6 L 33.599352,30.4 29.6,40 h -4.799678 z"
       id="path7" />
    <path
       style="fill:#333333;fill-opacity:1"
       d="m 8.8,24 6.4,16 H 20 L 26.4,24 H 21.6 L 17.599352,33.6 13.6,24 H 8.800323 Z"
       id="path11" />
  </g>
  <g
     id="g2-2"
     style="fill:#333333;fill-opacity:1;stroke:none;stroke-opacity:0.6"
     transform="matrix(0.30558774,0,0,0.30558774,-1.3089642,-0.66159628)" />
  <g
     id="g2"
     transform="matrix(0.16240186,0,0,0.16240186,3.2650137,3.2319328)"
     style="fill:#333333;fill-opacity:1;stroke:none;stroke-width:0.940838;stroke-dasharray:none;stroke-opacity:0.6" />
  <g
     id="g9-3"
     transform="matrix(0.16467622,0,0,0.16467622,3.0321842,-171.28084)"
     style="fill:#333333;fill-opacity:1" />
  <path
     style="fill:#34a1a1;fill-opacity:1;stroke-width:0.00888214;stroke-opacity:0.5"
     d="M 21.852947,8.5534923 C 21.518944,8.3870502 21.372252,7.9479132 21.539751,7.6159042 c 0.262406,-0.5201319 0.94586,-0.5156729 1.212639,0.0079 0.03213,0.06306 0.05364,0.17316 0.05495,0.281268 0.0037,0.300769 -0.126361,0.525671 -0.375679,0.6499111 -0.200086,0.09971 -0.37653,0.09925 -0.578715,-0.0015 z"
     id="path2" />
  <g
     id="g6"
     transform="matrix(0.24315168,0,0,0.24315168,0.38170693,0.68564615)"
     style="fill:#333333;fill-opacity:1;stroke:none;stroke-width:0.685871;stroke-dasharray:none;stroke-opacity:0.6" />
  <g
     id="g1"
     transform="matrix(0.18946881,0,0,0.18946881,2.4015833,2.4015851)"
     style="fill:#333333;fill-opacity:1;stroke:none;stroke-width:0.762079;stroke-dasharray:none;stroke-opacity:0.6" />
  <g
     id="g3"
     transform="matrix(0.23627487,0,0,0.23627487,14.962918,0.87600717)"
     style="fill:#333333;fill-opacity:1" />
  <g
     id="g1374"
     transform="matrix(0.21933387,0,0,0.21933387,1.4478166,1.4478163)"
     style="fill:#333333;fill-opacity:1;stroke:none;stroke-width:0.762079;stroke-dasharray:none;stroke-opacity:0.6" />
  <g
     id="g1759"
     transform="matrix(0.19991092,0,0,0.19991093,2.0448278,2.0488816)"
     style="fill:#333333;fill-opacity:1;stroke:none;stroke-width:0.743294;stroke-dasharray:none;stroke-opacity:0.6" />
</svg>
