<?xml version="1.0" encoding="UTF-8" standalone="no"?>
<svg
   width="64"
   height="64"
   version="1.1"
   viewBox="0 0 16.933 16.933"
   id="svg7"
   sodipodi:docname="abcd.svg"
   inkscape:version="1.4.2 (ebf0e940d0, 2025-05-08)"
   xmlns:inkscape="http://www.inkscape.org/namespaces/inkscape"
   xmlns:sodipodi="http://sodipodi.sourceforge.net/DTD/sodipodi-0.dtd"
   xmlns="http://www.w3.org/2000/svg"
   xmlns:svg="http://www.w3.org/2000/svg"
   xmlns:rdf="http://www.w3.org/1999/02/22-rdf-syntax-ns#"
   xmlns:cc="http://creativecommons.org/ns#"
   xmlns:dc="http://purl.org/dc/elements/1.1/">
  <sodipodi:namedview
     id="namedview7"
     pagecolor="#9c4444"
     bordercolor="#000000"
     borderopacity="0.25"
     inkscape:showpageshadow="2"
     inkscape:pageopacity="0.0"
     inkscape:pagecheckerboard="0"
     inkscape:deskcolor="#d1d1d1"
     inkscape:zoom="6.15625"
     inkscape:cx="31.837563"
     inkscape:cy="27.28934"
     inkscape:window-width="1320"
     inkscape:window-height="669"
     inkscape:window-x="158"
     inkscape:window-y="123"
     inkscape:window-maximized="0"
     inkscape:current-layer="svg7"
     showgrid="false" />
  <defs
     id="defs2">
    <rect
       x="67.489848"
       y="35.60533"
       width="15.337563"
       height="22.51269"
       id="rect3808" />
    <filter
       style="color-interpolation-filters:sRGB;"
       inkscape:label="Blur"
       id="filter15"
       x="-0.098732889"
       y="-0.098732882"
       width="1.1974658"
       height="1.1974658">
      <feGaussianBlur
         stdDeviation="0.4 0.4"
         result="blur"
         id="feGaussianBlur15" />
    </filter>
  </defs>
  <metadata
     id="metadata2">
    <rdf:RDF>
      <cc:Work
         rdf:about="">
        <dc:format>image/svg+xml</dc:format>
        <dc:type
           rdf:resource="http://purl.org/dc/dcmitype/StillImage" />
      </cc:Work>
    </rdf:RDF>
  </metadata>
  <g
     fill="#474747"
     id="g9"
     transform="matrix(0.46959567,0,0,0.46959567,4.7471229,3.7470598)"
     style="fill:#999999;fill-opacity:1;stroke:none;stroke-width:0.58349;stroke-dasharray:none;stroke-opacity:0.3" />
  <text
     xml:space="preserve"
     transform="scale(0.26457812)"
     id="text3806"
     style="font-size:6.66667px;white-space:pre;shape-inside:url(#rect3808);display:inline;fill:#999999;stroke-width:2" />
  <rect
     style="fill:none;fill-opacity:0.8;stroke:#000000;stroke-width:0.619113;stroke-dasharray:none;stroke-opacity:1;filter:url(#filter15)"
     id="rect246-4-3"
     width="12.858497"
     height="12.858498"
     x="2.0372517"
     y="2.037251"
     rx="1.9049625"
     ry="1.9049625"
     transform="matrix(1.1025,0,0,1.1025,-0.86781625,-0.86781624)" />
  <rect
     style="fill:#cccccc;fill-opacity:0.99999982;stroke:#333333;stroke-width:0.682572;stroke-dasharray:none;stroke-opacity:1"
     id="rect246-4"
     width="14.176493"
     height="14.176494"
     x="1.3782538"
     y="1.3782533"
     rx="2.1002214"
     ry="2.1002214" />
  <path
     style="fill:#333333;fill-opacity:1;stroke:none;stroke-width:0.141517;stroke-dasharray:none;stroke-opacity:0.6"
     d="m 6.3042198,11.00128 c 0.3255521,-0.339677 0.6253643,-0.629184 0.6662452,-0.643346 0.040889,-0.01414 0.2437423,0.01847 0.4508049,0.0725 0.5002483,0.130548 0.8566089,0.08376 1.7727609,-0.232789 0.8815622,-0.3046257 1.0735252,-0.4368547 1.3719502,-0.9453365 0.113684,-0.1937053 0.240404,-0.3396036 0.318449,-0.3666414 0.07129,-0.024697 0.397136,0.00424 0.724091,0.064312 1.078647,0.19818 1.450906,0.1572783 1.544037,-0.169644 0.132041,-0.4635236 -0.386403,-0.7085883 -1.582287,-0.7479326 -0.218428,-0.00718 -0.399515,-0.019922 -0.402419,-0.028304 -0.0028,-0.00838 0.394965,-0.1504644 0.884146,-0.3157587 l 0.889425,-0.3005192 0.07514,-0.1892227 C 13.117014,6.9455963 13.03965,6.7456207 12.814312,6.6757211 12.65343,6.6258188 12.557275,6.6486343 11.767953,6.9240329 11.175255,7.1308553 10.892527,7.209325 10.879187,7.1708173 c -0.0107,-0.031066 0.07179,-0.1516333 0.183461,-0.2679323 0.282904,-0.2946429 0.282995,-0.2947149 0.262775,-0.2043178 -0.01197,0.053496 -0.002,0.061071 0.02967,0.022329 0.02627,-0.032254 0.02786,-0.074881 0.0034,-0.094731 -0.02435,-0.019845 0.03947,-0.092967 0.14185,-0.1624877 0.220965,-0.1499682 0.513501,-0.6695267 0.49127,-0.8723257 C 11.980902,5.493803 11.925724,5.416569 11.816705,5.3465747 11.494321,5.1395693 11.041533,5.4533447 10.358082,6.3573719 9.9986637,6.8327892 9.8287008,6.9393607 9.5047059,6.8924616 9.2005893,6.8484422 8.296996,7.0349681 7.7390332,7.2569471 7.3289313,7.4201098 7.1300494,7.5356388 6.7333207,7.8411969 6.461336,8.0506804 6.1937337,8.2226464 6.1386533,8.2233453 6.08358,8.2240482 5.6221053,8.1719589 5.1131746,8.1076049 4.3180805,8.0070614 4.1628254,8.0040806 4.0100581,8.0864277 3.7659886,8.2179854 3.7165335,8.3225462 3.7942876,8.5426161 3.8988776,8.8384946 4.3331246,9.0325444 4.825001,9.0031197 5.1821435,8.981756 5.658032,9.0672133 5.6552347,9.1522073 5.6537067,9.1982518 5.3849762,9.3412155 4.885457,9.5617279 4.4633606,9.7480638 4.0724674,9.9401644 4.0168046,9.9886288 3.8025466,10.175181 3.8974744,10.54313 4.1974216,10.688724 c 0.139484,0.06771 0.1815115,0.05813 0.7129612,-0.162346 0.3106071,-0.128864 0.6270193,-0.272155 0.7031363,-0.318435 0.2440486,-0.148374 0.1661301,0.05335 -0.1371089,0.354936 -0.3343638,0.332553 -0.5208551,0.731278 -0.4125419,0.882026 0.1081988,0.150606 0.284984,0.223741 0.4771744,0.197421 0.1404679,-0.01924 0.2776936,-0.134499 0.7631784,-0.64105 z M 5.4724987,11.186512 C 5.4951183,11.125037 5.7486772,10.841986 6.035986,10.557505 6.6749632,9.9248108 6.7786928,9.7735727 6.7098818,9.5749479 6.6815049,9.4930178 6.6236024,9.4182298 6.5812196,9.4087489 6.4836918,9.3869299 6.2028433,9.5071661 5.7060478,9.7833973 5.2715689,10.024986 4.4159887,10.340909 4.3910612,10.268956 4.364848,10.193286 4.4961734,10.109872 5.0302411,9.8629537 5.308539,9.7342893 5.7028501,9.5433084 5.9064898,9.4385602 6.1101313,9.3338087 6.3203008,9.2272041 6.3735275,9.201656 6.4694725,9.155607 6.498849,9.0758377 6.4923828,8.8789215 6.4872734,8.7233284 7.1328482,8.1118752 7.5338603,7.8924907 7.7332896,7.7833858 8.1346413,7.625396 8.4671695,7.525089 8.9553398,7.3778358 9.1138708,7.3536283 9.4382611,7.3768349 c 0.2132217,0.015249 0.4697843,0.012474 0.5701359,-0.00616 0.172499,-0.032051 0.183919,-0.024111 0.209199,0.1453947 0.01712,0.1147409 0.05714,0.1902232 0.111095,0.2096641 0.05114,0.018418 0.522312,-0.1192939 1.196935,-0.3498366 0.611934,-0.2090792 1.130779,-0.3713814 1.153026,-0.3605745 0.138966,0.067457 -0.152944,0.2008135 -1.031629,0.4712935 -1.06493,0.3278114 -1.180954,0.395276 -1.071396,0.6229431 0.06829,0.1419525 0.239608,0.1759889 1.49787,0.2976357 0.489563,0.047329 0.760081,0.1566314 0.667838,0.2698361 -0.0425,0.05217 -0.545768,-0.00698 -1.427571,-0.1678074 -0.307338,-0.056051 -0.614621,-0.082631 -0.682855,-0.059065 -0.0729,0.025175 -0.188093,0.1621449 -0.279318,0.3321155 C 10.070302,9.3063547 9.899399,9.4265772 8.9798261,9.7472463 8.2041701,10.01765 8.162263,10.02651 7.8057143,9.9908798 7.6023612,9.9706071 7.3310121,9.9010242 7.2027132,9.8362534 7.074411,9.7714819 6.943546,9.7274558 6.9118995,9.7384194 6.8802653,9.7493809 6.7646153,9.8729828 6.6549322,10.013087 6.3392057,10.416382 5.5807776,11.245746 5.5025444,11.27326 c -0.060316,0.02121 -0.064891,0.0081 -0.030051,-0.08674 z M 9.749214,8.4842806 C 9.8203924,8.422234 9.7337181,8.1662545 9.623407,8.1127003 9.4399962,8.0236708 9.2051182,8.2148695 9.2695235,8.4007781 9.3289902,8.5724296 9.5950007,8.6187325 9.7492269,8.4842772 Z M 7.8892488,9.0256501 C 7.942183,8.8153137 7.7960442,8.6759685 7.5954039,8.7454781 7.3376546,8.8347718 7.3143665,9.0849105 7.5542986,9.1869384 7.7295403,9.261456 7.8437434,9.2064655 7.8892488,9.0256501 Z M 5.74893,8.7319148 C 5.514822,8.702554 5.1426809,8.6784 4.9219485,8.6782475 4.4875301,8.677942 4.0224568,8.5237757 4.1760073,8.4309782 c 0.046295,-0.027976 0.173752,-0.037803 0.2832584,-0.021835 0.109504,0.015967 0.3628445,0.04837 0.5629794,0.072016 0.2001346,0.023641 0.447462,0.057591 0.549616,0.075438 0.1021461,0.017844 0.2965445,0.049305 0.4319767,0.069911 0.3789817,0.057661 0.3972559,0.065084 0.3941272,0.1601121 -0.00256,0.077349 -0.017257,0.083044 -0.1131766,0.043745 C 6.224169,8.8055527 5.9830191,8.7612287 5.7489119,8.7318671 Z m 4.540417,-1.5847064 c -0.0067,-0.019277 0.491123,-0.6298622 0.816396,-1.0013365 0.07833,-0.089471 0.08979,-0.094438 0.04614,-0.02 -0.03192,0.054426 -0.05756,0.1322001 -0.05695,0.17283 6.42e-4,0.040628 -0.162438,0.2433411 -0.362318,0.4504719 -0.372,0.3854998 -0.429645,0.4372718 -0.443227,0.3980664 z m 1.012001,-1.1331726 c -0.06709,-0.015796 -0.0658,-0.04752 0.0057,-0.1465293 0.05027,-0.069506 0.137029,-0.1421677 0.192778,-0.1614807 0.09503,-0.032924 0.09656,-0.024367 0.02436,0.1369698 -0.08486,0.1897178 -0.0987,0.2003113 -0.222953,0.1710411 z"
     id="path1-26" />
  <g
     id="g1"
     style="fill:#333333;fill-opacity:1"
     transform="matrix(0.36041152,0,0,0.36041152,-3.3280983,-4.0885053)" />
  <g
     fill="#474747"
     id="g9-1"
     transform="matrix(0.57125823,0,0,0.57125823,3.8964343,3.896434)"
     style="fill:#333333;fill-opacity:1;stroke:none;stroke-width:0.253538;stroke-dasharray:none;stroke-opacity:0.6" />
  <g
     id="g1091"
     style="fill:#333333;fill-opacity:1;stroke:none;stroke-width:0.497577;stroke-dasharray:none;stroke-opacity:0.6"
     transform="matrix(0.31356398,0,0,0.31356398,-1.6783096,-1.9960197)" />
  <g
     id="g1759"
     transform="matrix(0.19991092,0,0,0.19991093,2.0448278,2.0488816)"
     style="fill:#333333;fill-opacity:1;stroke:none;stroke-width:0.743294;stroke-dasharray:none;stroke-opacity:0.6" />
  <path
     style="fill:#34a1a1;fill-opacity:1;stroke-width:0.00979256;stroke-opacity:0.5"
     d="M 20.537141,8.903324 C 20.168903,8.719821 20.007175,8.235673 20.191843,7.869633 c 0.289302,-0.573445 1.04281,-0.568529 1.336933,0.0087 0.03543,0.06952 0.05914,0.190908 0.06058,0.310097 0.0041,0.331598 -0.139313,0.579553 -0.414186,0.716527 -0.220594,0.109931 -0.415124,0.109423 -0.638033,-0.0017 z"
     id="path2" />
</svg>
