<?xml version="1.0" encoding="UTF-8" standalone="no"?>
<svg
   width="64"
   height="64"
   version="1.1"
   viewBox="0 0 16.933 16.933"
   id="svg7"
   sodipodi:docname="abcd.svg"
   inkscape:version="1.4.2 (ebf0e940d0, 2025-05-08)"
   xmlns:inkscape="http://www.inkscape.org/namespaces/inkscape"
   xmlns:sodipodi="http://sodipodi.sourceforge.net/DTD/sodipodi-0.dtd"
   xmlns="http://www.w3.org/2000/svg"
   xmlns:svg="http://www.w3.org/2000/svg"
   xmlns:rdf="http://www.w3.org/1999/02/22-rdf-syntax-ns#"
   xmlns:cc="http://creativecommons.org/ns#"
   xmlns:dc="http://purl.org/dc/elements/1.1/">
  <sodipodi:namedview
     id="namedview7"
     pagecolor="#9c4444"
     bordercolor="#000000"
     borderopacity="0.25"
     inkscape:showpageshadow="2"
     inkscape:pageopacity="0.0"
     inkscape:pagecheckerboard="0"
     inkscape:deskcolor="#d1d1d1"
     inkscape:zoom="6.15625"
     inkscape:cx="42.233503"
     inkscape:cy="34.436548"
     inkscape:window-width="1226"
     inkscape:window-height="669"
     inkscape:window-x="20"
     inkscape:window-y="132"
     inkscape:window-maximized="0"
     inkscape:current-layer="svg7"
     showgrid="false" />
  <defs
     id="defs2">
    <rect
       x="67.489848"
       y="35.60533"
       width="15.337563"
       height="22.51269"
       id="rect3808" />
    <filter
       style="color-interpolation-filters:sRGB;"
       inkscape:label="Blur"
       id="filter15"
       x="-0.098732889"
       y="-0.098732882"
       width="1.1974658"
       height="1.1974658">
      <feGaussianBlur
         stdDeviation="0.4 0.4"
         result="blur"
         id="feGaussianBlur15" />
    </filter>
  </defs>
  <metadata
     id="metadata2">
    <rdf:RDF>
      <cc:Work
         rdf:about="">
        <dc:format>image/svg+xml</dc:format>
        <dc:type
           rdf:resource="http://purl.org/dc/dcmitype/StillImage" />
      </cc:Work>
    </rdf:RDF>
  </metadata>
  <g
     fill="#474747"
     id="g9"
     transform="matrix(0.46959567,0,0,0.46959567,4.7471229,3.7470598)"
     style="fill:#999999;fill-opacity:1;stroke:none;stroke-width:0.58349;stroke-dasharray:none;stroke-opacity:0.3" />
  <text
     xml:space="preserve"
     transform="scale(0.26457812)"
     id="text3806"
     style="font-size:6.66667px;white-space:pre;shape-inside:url(#rect3808);display:inline;fill:#999999;stroke-width:2" />
  <rect
     style="fill:none;fill-opacity:0.8;stroke:#000000;stroke-width:0.619113;stroke-dasharray:none;stroke-opacity:1;filter:url(#filter15)"
     id="rect246-4-3"
     width="12.858497"
     height="12.858498"
     x="2.0372517"
     y="2.037251"
     rx="1.9049625"
     ry="1.9049625"
     transform="matrix(1.1025,0,0,1.1025,-0.86781625,-0.86781624)" />
  <rect
     style="fill:#cccccc;fill-opacity:0.99999982;stroke:#333333;stroke-width:0.682572;stroke-dasharray:none;stroke-opacity:1"
     id="rect246-4"
     width="14.176493"
     height="14.176494"
     x="1.3782538"
     y="1.3782533"
     rx="2.1002214"
     ry="2.1002214" />
  <path
     style="fill:#333333;fill-opacity:1;stroke:none;stroke-width:0.14439;stroke-dasharray:none;stroke-dashoffset:2.2;stroke-opacity:0.6"
     d="M 5.11108,11.909376 C 4.6885059,11.810148 4.176149,11.368086 3.9579765,10.914485 3.7797571,10.543952 3.7289351,10.309911 3.7291341,9.8606454 3.729275,9.5416799 3.7438115,9.4196652 3.8054112,9.2203117 4.0463093,8.4407215 4.5931434,7.9138483 5.2746089,7.8047443 c 0.1911109,-0.030598 0.2773695,-0.028255 0.476146,0.012935 0.1335137,0.027664 0.2686132,0.060618 0.3002195,0.073227 0.051661,0.020612 0.057464,-0.00195 0.057464,-0.2239793 0,-0.7420266 0.2992416,-1.4680896 0.8209593,-1.9919251 0.439939,-0.441723 0.862161,-0.6456942 1.4100776,-0.6811916 1.2867524,-0.083366 2.3820937,1.0591344 2.4858037,2.592831 0.01191,0.1760913 0.02497,0.3201664 0.029,0.3201664 0.0041,0 0.07203,-0.024249 0.151042,-0.053884 0.215764,-0.080913 0.682209,-0.072503 0.929141,0.016753 0.570179,0.206092 1.034099,0.7483721 1.203215,1.4064452 0.08292,0.3226765 0.08872,0.8385281 0.01292,1.1516311 -0.167721,0.692905 -0.66653,1.270942 -1.253074,1.452106 -0.208123,0.06429 -0.296498,0.0659 -3.4364567,0.06267 -1.8060131,-0.0019 -3.278741,-0.01643 -3.3499998,-0.03316 z"
     id="path99" />
  <g
     id="g1759"
     transform="matrix(0.19991092,0,0,0.19991093,2.0448278,2.0488816)"
     style="fill:#333333;fill-opacity:1;stroke:none;stroke-width:0.743294;stroke-dasharray:none;stroke-opacity:0.6" />
  <path
     style="fill:#34a139;fill-opacity:1;stroke-width:0.00888214;stroke-opacity:0.5"
     d="m 20.529294,10.930718 c -0.334003,-0.166442 -0.480695,-0.605579 -0.313196,-0.9375882 0.262406,-0.5201315 0.94586,-0.5156722 1.212639,0.00791 0.03213,0.06306 0.05364,0.17316 0.05495,0.281268 0.0037,0.300769 -0.126361,0.525671 -0.375679,0.649911 -0.200086,0.09971 -0.37653,0.09925 -0.578715,-0.0015 z"
     id="path2" />
</svg>
