<?xml version="1.0" encoding="UTF-8" standalone="no"?>
<svg
   width="64"
   height="64"
   version="1.1"
   viewBox="0 0 16.933 16.933"
   id="svg7"
   sodipodi:docname="display-im6.q16.svg"
   inkscape:version="1.4.2 (ebf0e940d0, 2025-05-08)"
   xmlns:inkscape="http://www.inkscape.org/namespaces/inkscape"
   xmlns:sodipodi="http://sodipodi.sourceforge.net/DTD/sodipodi-0.dtd"
   xmlns="http://www.w3.org/2000/svg"
   xmlns:svg="http://www.w3.org/2000/svg"
   xmlns:rdf="http://www.w3.org/1999/02/22-rdf-syntax-ns#"
   xmlns:cc="http://creativecommons.org/ns#"
   xmlns:dc="http://purl.org/dc/elements/1.1/">
  <sodipodi:namedview
     id="namedview7"
     pagecolor="#9c4444"
     bordercolor="#000000"
     borderopacity="0.25"
     inkscape:showpageshadow="2"
     inkscape:pageopacity="0.0"
     inkscape:pagecheckerboard="0"
     inkscape:deskcolor="#d1d1d1"
     inkscape:zoom="6.15625"
     inkscape:cx="29.888325"
     inkscape:cy="39.634518"
     inkscape:window-width="1226"
     inkscape:window-height="669"
     inkscape:window-x="0"
     inkscape:window-y="109"
     inkscape:window-maximized="0"
     inkscape:current-layer="svg7"
     showgrid="false" />
  <defs
     id="defs2">
    <rect
       x="67.489848"
       y="35.60533"
       width="15.337563"
       height="22.51269"
       id="rect3808" />
    <filter
       style="color-interpolation-filters:sRGB;"
       inkscape:label="Blur"
       id="filter15"
       x="-0.098732889"
       y="-0.098732882"
       width="1.1974658"
       height="1.1974658">
      <feGaussianBlur
         stdDeviation="0.4 0.4"
         result="blur"
         id="feGaussianBlur15" />
    </filter>
    <clipPath
       id="clip0_2648_607">
      <rect
         width="16"
         height="16"
         fill="#ffffff"
         id="rect1"
         x="0"
         y="0" />
    </clipPath>
  </defs>
  <metadata
     id="metadata2">
    <rdf:RDF>
      <cc:Work
         rdf:about="">
        <dc:format>image/svg+xml</dc:format>
        <dc:type
           rdf:resource="http://purl.org/dc/dcmitype/StillImage" />
      </cc:Work>
    </rdf:RDF>
  </metadata>
  <g
     fill="#474747"
     id="g9"
     transform="matrix(0.46959567,0,0,0.46959567,4.7471229,3.7470598)"
     style="fill:#999999;fill-opacity:1;stroke:none;stroke-width:0.58349;stroke-dasharray:none;stroke-opacity:0.3" />
  <text
     xml:space="preserve"
     transform="scale(0.26457812)"
     id="text3806"
     style="font-size:6.66667px;white-space:pre;shape-inside:url(#rect3808);display:inline;fill:#999999;stroke-width:2" />
  <rect
     style="fill:none;fill-opacity:0.8;stroke:#000000;stroke-width:0.619113;stroke-dasharray:none;stroke-opacity:1;filter:url(#filter15)"
     id="rect246-4-3"
     width="12.858497"
     height="12.858498"
     x="2.0372517"
     y="2.037251"
     rx="1.9049625"
     ry="1.9049625"
     transform="matrix(1.1025,0,0,1.1025,-0.86781625,-0.86781624)" />
  <rect
     style="fill:#cccccc;fill-opacity:0.99999982;stroke:#333333;stroke-width:0.682572;stroke-dasharray:none;stroke-opacity:1"
     id="rect246-4"
     width="14.176493"
     height="14.176494"
     x="1.3782538"
     y="1.3782533"
     rx="2.1002214"
     ry="2.1002214" />
  <path
     style="fill:#333333;fill-opacity:1;stroke-width:0.299319"
     d="m 8.8876015,12.672643 c -1.173112,-0.423251 -1.7878876,-0.330335 -2.270057,-0.315017 -0.512278,0.04426 -1.0080312,0.176665 -1.5103613,0.341738 -0.275276,0.08027 -0.2756398,0.07609 -0.01844,-0.211499 0.7915534,-0.692641 1.7107642,-1.25931 2.6285368,-1.44469 0.6663145,0 1.1071903,-0.533594 0.9647227,-0.976653 C 8.1469503,9.1953619 6.6705838,8.0581634 6.6705838,7.748255 c 0,-0.2593986 0.4529744,-0.9180287 1.0450975,-1.5433511 C 7.977689,5.9282064 8.3302066,5.706905 8.2484814,5.6316385 8.0781867,5.4748082 6.4450335,5.1739708 5.6818625,5.1739708 c -0.6095518,0 -1.146849,0.4106479 -1.146849,0.8132091 0,0.1116807 0.07474,0.4218415 0.3126052,0.689245 L 5.2801019,7.1626115 C 4.9940372,7.4888523 4.8718318,7.8424842 4.3798172,7.8424842 3.6741508,7.8424842 3.6741508,7.2711682 3.677883,6.7154551 3.7775244,5.354643 5.8546738,3.7980704 7.8193224,3.9933797 9.061981,4.1171375 10.151239,4.1869535 11.340857,4.276014 12.002705,4.308668 12.417624,4.251192 13.038362,4.0160817 13.488189,3.8457043 13.201322,4.3938582 12.527912,4.9914633 11.717949,5.7102519 11.238723,5.8921855 9.9413903,5.7726087 8.9710351,5.6831702 8.7055458,5.8718517 8.483242,6.4640117 8.3068286,6.9339352 8.7386942,7.3818069 9.6550418,8.3381548 10.106906,8.809741 10.265544,9.1143424 10.262411,9.4124011 c -0.0028,0.2667333 -0.123154,0.5282256 -0.4738757,0.8994659 -0.3092265,0.327317 -0.7255578,0.652914 -0.6813305,0.723545 0.1387592,0.221609 1.0574812,0.723575 1.5582122,0.723575 0.263927,0 1.001347,-0.165747 1.297602,-0.314926 0.501114,-0.252336 0.71382,-0.250062 0.71382,0.0077 0,0.20407 -1.816605,1.506917 -2.7186847,1.504559 -0.1640977,-4.95e-4 -0.6458248,-0.130422 -1.0705557,-0.283669 z"
     id="path3" />
  <g
     id="g3476"
     transform="matrix(0.34247074,0,0,0.34247074,-2.4299573,-2.1907516)"
     style="fill:#333333;fill-opacity:1;stroke:none;stroke-width:0.468459;stroke-dasharray:none;stroke-opacity:0.6" />
  <g
     fill-rule="nonzero"
     id="g8-2"
     transform="matrix(0.26419172,0,0,0.26419172,2.1507327,2.1978909)"
     style="fill:#333333;fill-opacity:1;stroke:none;stroke-width:0.578345;stroke-dasharray:none;stroke-opacity:0.6" />
  <g
     id="g4"
     transform="matrix(0.05977191,0,0,0.05977191,0.81569467,0.81569447)"
     style="fill:#333333;fill-opacity:1;stroke:none;stroke-width:2.42847;stroke-dasharray:none;stroke-opacity:0.6" />
  <g
     id="g2-5"
     transform="matrix(0.15466844,0,0,0.15466844,3.4933084,3.5288103)"
     style="fill:#34a139;fill-opacity:1;stroke:none;stroke-width:0.940838;stroke-dasharray:none;stroke-opacity:0.6" />
  <g
     id="g3"
     transform="matrix(0.28878042,0,0,0.28878042,-0.84026208,-0.82971322)"
     style="fill:#333333;fill-opacity:1;stroke:none;stroke-width:0.50505;stroke-dasharray:none;stroke-opacity:0.6" />
  <g
     id="g9-3"
     transform="matrix(0.29651148,0,0,0.29651148,-0.89504357,-1.3665197)"
     style="fill:#333333;fill-opacity:1;stroke:none;stroke-width:0.515305;stroke-dasharray:none;stroke-opacity:0.6" />
  <g
     id="g7227"
     transform="matrix(0.22436691,0,0,0.22436691,1.7346399,1.7963712)"
     style="fill:#333333;fill-opacity:1;stroke:none;stroke-width:0.675722;stroke-dasharray:none;stroke-opacity:0.6" />
  <g
     id="g1178"
     transform="matrix(0.90982636,0,0,0.90982636,0.74896913,0.60858537)"
     style="fill:#333333;fill-opacity:1;stroke:none;stroke-width:0.166636;stroke-dasharray:none;stroke-opacity:0.6" />
  <g
     fill-rule="nonzero"
     id="g8-6"
     transform="matrix(0.26214424,0,0,0.26214424,2.1996803,2.2464725)"
     style="fill:#333333;fill-opacity:1;stroke:none;stroke-width:0.578345;stroke-dasharray:none;stroke-opacity:0.6" />
  <g
     id="g18897"
     transform="matrix(0.22696471,0,0,0.22696471,1.2429561,0.2188287)"
     style="fill:#333333;fill-opacity:1;stroke:none;stroke-width:0.636179;stroke-dasharray:none;stroke-opacity:0.6" />
  <g
     id="g19"
     transform="matrix(0.353756,0,0,0.353756,13.753295,-2.8888834)"
     style="fill:#333333;fill-opacity:1" />
  <g
     id="g2"
     transform="matrix(0.16114325,0,0,0.16114325,3.3223971,3.2799791)"
     style="fill:#333333;fill-opacity:1;stroke:none;stroke-width:0.940838;stroke-dasharray:none;stroke-opacity:0.6" />
  <g
     id="g7"
     transform="matrix(0.01825826,0,0,0.01825826,3.7923903,3.7923935)"
     style="fill:#333333;fill-opacity:1" />
  <g
     id="g5"
     transform="matrix(0.23831295,0,0,0.23831295,0.84320935,0.84048597)"
     style="fill:#333333;fill-opacity:1;stroke:none;stroke-width:0.623519;stroke-dasharray:none;stroke-opacity:0.6" />
  <g
     id="g6"
     transform="translate(-0.52915565)" />
  <g
     id="g8"
     transform="matrix(0.5086385,0,0,0.5086385,2.0089833,2.2067877)"
     style="fill:#333333;fill-opacity:1" />
  <g
     id="g1759"
     transform="matrix(0.19991092,0,0,0.19991093,2.0448278,2.0488816)"
     style="fill:#333333;fill-opacity:1;stroke:none;stroke-width:0.743294;stroke-dasharray:none;stroke-opacity:0.6" />
  <path
     style="fill:#34a139;fill-opacity:1;stroke-width:0.00888214;stroke-opacity:0.5"
     d="M 21.237545,9.1478518 C 20.903542,8.981411 20.75685,8.542274 20.924349,8.210265 c 0.262406,-0.5201316 0.94586,-0.5156716 1.212639,0.0079 0.03213,0.06306 0.05364,0.17316 0.05495,0.281268 0.0037,0.300769 -0.126361,0.525671 -0.375679,0.6499098 -0.200086,0.09971 -0.37653,0.09925 -0.578715,-0.0015 z"
     id="path2-2" />
</svg>
