<?xml version="1.0" encoding="UTF-8" standalone="no"?>
<svg
   width="64"
   height="64"
   version="1.1"
   viewBox="0 0 16.933 16.933"
   id="svg7"
   sodipodi:docname="accessories-text-editor.svg"
   inkscape:version="1.4.2 (ebf0e940d0, 2025-05-08)"
   xmlns:inkscape="http://www.inkscape.org/namespaces/inkscape"
   xmlns:sodipodi="http://sodipodi.sourceforge.net/DTD/sodipodi-0.dtd"
   xmlns="http://www.w3.org/2000/svg"
   xmlns:svg="http://www.w3.org/2000/svg"
   xmlns:rdf="http://www.w3.org/1999/02/22-rdf-syntax-ns#"
   xmlns:cc="http://creativecommons.org/ns#"
   xmlns:dc="http://purl.org/dc/elements/1.1/">
  <sodipodi:namedview
     id="namedview7"
     pagecolor="#9c4444"
     bordercolor="#000000"
     borderopacity="0.25"
     inkscape:showpageshadow="2"
     inkscape:pageopacity="0.0"
     inkscape:pagecheckerboard="0"
     inkscape:deskcolor="#d1d1d1"
     inkscape:zoom="8.7062522"
     inkscape:cx="26.073217"
     inkscape:cy="34.400565"
     inkscape:window-width="1422"
     inkscape:window-height="818"
     inkscape:window-x="24"
     inkscape:window-y="21"
     inkscape:window-maximized="0"
     inkscape:current-layer="svg7"
     showgrid="false" />
  <defs
     id="defs2">
    <rect
       x="67.489848"
       y="35.60533"
       width="15.337563"
       height="22.51269"
       id="rect3808" />
    <filter
       style="color-interpolation-filters:sRGB;"
       inkscape:label="Blur"
       id="filter15"
       x="-0.098732889"
       y="-0.098732882"
       width="1.1974658"
       height="1.1974658">
      <feGaussianBlur
         stdDeviation="0.4 0.4"
         result="blur"
         id="feGaussianBlur15" />
    </filter>
  </defs>
  <metadata
     id="metadata2">
    <rdf:RDF>
      <cc:Work
         rdf:about="">
        <dc:format>image/svg+xml</dc:format>
        <dc:type
           rdf:resource="http://purl.org/dc/dcmitype/StillImage" />
      </cc:Work>
    </rdf:RDF>
  </metadata>
  <g
     fill="#474747"
     id="g9"
     transform="matrix(0.46959567,0,0,0.46959567,4.7471229,3.7470598)"
     style="fill:#999999;fill-opacity:1;stroke:none;stroke-width:0.58349;stroke-dasharray:none;stroke-opacity:0.3" />
  <text
     xml:space="preserve"
     transform="scale(0.26457812)"
     id="text3806"
     style="font-size:6.66667px;white-space:pre;shape-inside:url(#rect3808);display:inline;fill:#999999;stroke-width:2" />
  <rect
     style="fill:none;fill-opacity:0.8;stroke:#000000;stroke-width:0.619113;stroke-dasharray:none;stroke-opacity:1;filter:url(#filter15)"
     id="rect246-4-3"
     width="12.858497"
     height="12.858498"
     x="2.0372517"
     y="2.037251"
     rx="1.9049625"
     ry="1.9049625"
     transform="matrix(1.1025,0,0,1.1025,-0.86781625,-0.86781624)" />
  <rect
     style="fill:#cccccc;fill-opacity:0.99999982;stroke:#333333;stroke-width:0.682572;stroke-dasharray:none;stroke-opacity:1"
     id="rect246-4"
     width="14.176493"
     height="14.176494"
     x="1.3782538"
     y="1.3782533"
     rx="2.1002214"
     ry="2.1002214" />
  <path
     id="path15571"
     style="fill:#333333;fill-opacity:1;stroke:none;stroke-width:0.297861;stroke-dasharray:none;stroke-opacity:1"
     d="m 8.5946842,4.0847266 c -0.4506506,0.010631 -0.7220852,0.3426999 -0.7510513,0.918598 -0.00791,0.1574607 0.00278,0.3690359 0.023851,0.470643 0.053509,0.2577498 0.2078558,0.5684515 0.3356758,0.6760043 0.2192346,0.1844747 0.4339289,0.071516 0.65157,-0.3426564 C 9.1062808,5.3286129 9.1883678,4.6679927 9.0339116,4.3657161 8.9260556,4.1546344 8.8087007,4.0796774 8.5946842,4.0847266 Z M 6.5556176,4.5239552 c -0.060635,-0.00122 -0.1259073,0.00901 -0.1954711,0.02967 C 5.9800467,4.6665012 5.7812482,5.0078476 5.8522704,5.4256816 5.919981,5.8240379 6.2348815,6.3050938 6.5073316,6.4268891 6.5662871,6.453243 6.6597613,6.4673835 6.7150204,6.458302 7.1024791,6.3946457 7.2660702,5.3927456 6.9808835,4.8299567 6.8793878,4.6296672 6.7375224,4.5275504 6.5556176,4.5239524 Z M 5.1058736,6.0743436 C 4.9145063,6.0736407 4.7098789,6.1715956 4.5945064,6.341371 4.5283154,6.43878 4.5175874,6.4898836 4.5287694,6.6497033 c 0.010861,0.1553522 0.037843,0.2273621 0.1436944,0.3810522 0.1446706,0.2100562 0.4042995,0.423283 0.6050297,0.4968231 0.072128,0.026424 0.1582498,0.049302 0.1913987,0.050613 0.1100808,0.00431 0.2501792,-0.094628 0.2879701,-0.203034 C 5.8874974,7.000418 5.6672367,6.3335083 5.349049,6.1395007 5.2771821,6.0956815 5.1928589,6.074668 5.1058736,6.0743436 Z M 9.067073,6.9504727 C 8.4158536,6.9606682 7.6851716,7.1208132 7.0634937,7.4280976 5.933341,7.986711 5.33454,8.860328 5.4019891,9.8517035 c 0.028548,0.4196355 0.1307413,0.7709095 0.3566187,1.2280955 0.556739,1.126871 1.592766,1.983538 2.6499136,2.190905 0.2312293,0.04535 0.6329048,0.04019 0.8231897,-0.0105 0.8611749,-0.229292 1.6578299,-1.073915 1.8540669,-1.965763 0.03595,-0.163434 0.03388,-0.202585 -0.01629,-0.308334 -0.164636,-0.346922 -1.018642,-0.389494 -1.6039084,-0.08026 -0.2581248,0.136386 -0.3043034,0.212529 -0.3089141,0.507878 -0.00638,0.40907 -0.1567476,0.594734 -0.47937,0.592228 C 8.3482331,12.003327 7.9940472,11.805104 7.8733025,11.55568 7.7287955,11.257169 7.812294,10.984954 8.1409118,10.680714 8.2504854,10.579267 8.7147315,10.248464 9.1723709,9.9453688 10.186249,9.2738792 10.544734,8.9569332 10.741958,8.5578755 10.855815,8.3274969 10.86757,8.2789565 10.867034,8.034292 10.866361,7.7236308 10.805857,7.5767568 10.59419,7.3728313 10.290299,7.0800518 9.7182926,6.9402695 9.067072,6.9504737 Z"
     sodipodi:nodetypes="sccssssccsscscccccsscsscssccccccsccsssscsss" />
  <g
     id="g1759"
     transform="matrix(0.19991092,0,0,0.19991093,2.0448278,2.0488816)"
     style="fill:#333333;fill-opacity:1;stroke:none;stroke-width:0.743294;stroke-dasharray:none;stroke-opacity:0.6" />
  <path
     style="fill:#a14d34;fill-opacity:1;stroke-width:0.00888214;stroke-opacity:0.5"
     d="m 20.529294,10.930718 c -0.334003,-0.166442 -0.480695,-0.605579 -0.313196,-0.9375882 0.262406,-0.5201315 0.94586,-0.5156722 1.212639,0.00791 0.03213,0.06306 0.05364,0.17316 0.05495,0.281268 0.0037,0.300769 -0.126361,0.525671 -0.375679,0.649911 -0.200086,0.09971 -0.37653,0.09925 -0.578715,-0.0015 z"
     id="path2" />
  <path
     style="fill:#a14d34;fill-opacity:1;stroke-width:0.11486"
     d="m 38.707815,24.196062 c -1.024921,-0.48509 -1.480941,-1.41033 -1.480768,-3.004395 1.41e-4,-1.302791 0.218685,-2.195447 0.871738,-3.560659 0.371094,-0.775777 0.646749,-1.153257 1.342045,-1.837786 1.366626,-1.345466 2.780056,-1.970061 4.471107,-1.975784 1.140613,-0.0039 1.69436,0.153414 2.356515,0.669294 l 0.536992,0.418367 -0.0027,1.104519 c -0.0022,0.895928 -0.05429,1.229918 -0.275773,1.768519 -0.46037,1.119539 -1.451594,2.579889 -2.52455,3.719368 -1.136178,1.206621 -2.080016,1.931784 -3.181907,2.444702 -0.993672,0.462541 -1.534458,0.527522 -2.112673,0.253855 z"
     id="path3"
     transform="scale(0.26457812)" />
</svg>
